<svg width="729" height="234" viewBox="0 0 729 234" fill="none" xmlns="http://www.w3.org/2000/svg">
<path fill-rule="evenodd" clip-rule="evenodd" d="M0 186H90.9327L0 78V186Z" fill="white"/>
<path fill-rule="evenodd" clip-rule="evenodd" d="M181.933 22L91 22L181.933 130V22Z" fill="white"/>
<path fill-rule="evenodd" clip-rule="evenodd" d="M0 142.851C7.83749 146.166 16.4546 148 25.5 148C61.6747 148 91 118.675 91 82.5C91 46.3253 61.6747 17 25.5 17C16.4546 17 7.83749 18.8335 0 22.1492V142.851Z" fill="white"/>
<path d="M291.848 124.551H255.227L255.031 102.09H284.719C290.057 102.09 294.322 101.504 297.512 100.332C300.702 99.0951 303.013 97.3047 304.445 94.9609C305.943 92.6172 306.691 89.6875 306.691 86.1719C306.691 82.1354 305.943 78.8802 304.445 76.4062C302.948 73.9323 300.572 72.1419 297.316 71.0352C294.126 69.8633 289.992 69.2773 284.914 69.2773H268.117V185H233.84V42.8125H284.914C293.703 42.8125 301.548 43.6263 308.449 45.2539C315.35 46.8164 321.21 49.2253 326.027 52.4805C330.91 55.7357 334.621 59.8372 337.16 64.7852C339.699 69.668 340.969 75.4297 340.969 82.0703C340.969 87.8646 339.732 93.3008 337.258 98.3789C334.784 103.457 330.65 107.591 324.855 110.781C319.126 113.906 311.281 115.534 301.32 115.664L291.848 124.551ZM290.48 185H246.926L258.645 158.633H290.48C295.168 158.633 298.911 157.917 301.711 156.484C304.576 154.987 306.626 153.034 307.863 150.625C309.165 148.151 309.816 145.417 309.816 142.422C309.816 138.776 309.198 135.618 307.961 132.949C306.789 130.28 304.901 128.229 302.297 126.797C299.693 125.299 296.21 124.551 291.848 124.551H263.039L263.234 102.09H297.707L305.715 111.074C315.22 110.684 322.74 112.018 328.273 115.078C333.872 118.138 337.876 122.174 340.285 127.188C342.694 132.201 343.898 137.441 343.898 142.91C343.898 152.22 341.88 160 337.844 166.25C333.872 172.5 327.915 177.188 319.973 180.312C312.03 183.438 302.199 185 290.48 185ZM456.887 158.633V185H385.012V158.633H456.887ZM397.219 42.8125V185H362.941V42.8125H397.219ZM585.402 111.074V116.836C585.402 127.708 583.872 137.474 580.812 146.133C577.818 154.727 573.553 162.083 568.02 168.203C562.486 174.258 555.943 178.913 548.391 182.168C540.839 185.358 532.505 186.953 523.391 186.953C514.211 186.953 505.812 185.358 498.195 182.168C490.643 178.913 484.068 174.258 478.469 168.203C472.935 162.083 468.638 154.727 465.578 146.133C462.583 137.474 461.086 127.708 461.086 116.836V111.074C461.086 100.202 462.583 90.4362 465.578 81.7773C468.638 73.1185 472.902 65.7617 478.371 59.707C483.905 53.5872 490.448 48.9323 498 45.7422C505.617 42.487 514.016 40.8594 523.195 40.8594C532.31 40.8594 540.643 42.487 548.195 45.7422C555.812 48.9323 562.388 53.5872 567.922 59.707C573.456 65.7617 577.753 73.1185 580.812 81.7773C583.872 90.4362 585.402 100.202 585.402 111.074ZM550.637 116.836V110.879C550.637 103.848 550.018 97.6628 548.781 92.3242C547.609 86.9206 545.852 82.3958 543.508 78.75C541.164 75.1042 538.267 72.3698 534.816 70.5469C531.431 68.6589 527.557 67.7148 523.195 67.7148C518.638 67.7148 514.667 68.6589 511.281 70.5469C507.896 72.3698 505.064 75.1042 502.785 78.75C500.507 82.3958 498.781 86.9206 497.609 92.3242C496.503 97.6628 495.949 103.848 495.949 110.879V116.836C495.949 123.802 496.503 129.987 497.609 135.391C498.781 140.729 500.507 145.254 502.785 148.965C505.129 152.676 507.993 155.475 511.379 157.363C514.829 159.251 518.833 160.195 523.391 160.195C527.753 160.195 531.626 159.251 535.012 157.363C538.397 155.475 541.229 152.676 543.508 148.965C545.852 145.254 547.609 140.729 548.781 135.391C550.018 129.987 550.637 123.802 550.637 116.836ZM719.484 109.023V167.422C717.076 170.091 713.365 172.956 708.352 176.016C703.404 179.01 697.154 181.582 689.602 183.73C682.049 185.879 673.163 186.953 662.941 186.953C653.501 186.953 644.94 185.456 637.258 182.461C629.576 179.401 622.967 174.941 617.434 169.082C611.965 163.158 607.733 155.931 604.738 147.402C601.809 138.809 600.344 128.978 600.344 117.91V110C600.344 98.9323 601.841 89.1016 604.836 80.5078C607.831 71.9141 612.03 64.6875 617.434 58.8281C622.902 52.9036 629.315 48.4115 636.672 45.3516C644.094 42.2917 652.232 40.7617 661.086 40.7617C674.172 40.7617 684.816 42.8451 693.02 47.0117C701.223 51.1133 707.44 56.8099 711.672 64.1016C715.904 71.3281 718.475 79.694 719.387 89.1992H686.477C685.826 84.5117 684.589 80.5404 682.766 77.2852C681.008 73.9648 678.469 71.4583 675.148 69.7656C671.828 68.0078 667.531 67.1289 662.258 67.1289C658.156 67.1289 654.413 68.0078 651.027 69.7656C647.707 71.5234 644.875 74.1927 642.531 77.7734C640.188 81.2891 638.365 85.7161 637.062 91.0547C635.826 96.3932 635.207 102.643 635.207 109.805V117.91C635.207 125.007 635.793 131.224 636.965 136.562C638.202 141.901 640.025 146.361 642.434 149.941C644.908 153.457 648.033 156.126 651.809 157.949C655.65 159.707 660.174 160.586 665.383 160.586C669.029 160.586 672.154 160.293 674.758 159.707C677.362 159.056 679.51 158.275 681.203 157.363C682.961 156.387 684.296 155.475 685.207 154.629V132.559H661.379V109.023H719.484Z" fill="white"/>
</svg>
